<svg width="177" height="167" viewBox="0 0 177 167" fill="none" xmlns="http://www.w3.org/2000/svg">
    <path d="M96.5148 34.2215C96.5148 53.1235 111.837 68.4432 130.739 68.4432C149.636 68.4432 164.961 53.1235 164.961 34.2215C164.961 15.3221 149.636 6.06599e-06 130.739 6.06599e-06C111.837 6.06599e-06 96.5148 15.3221 96.5148 34.2215Z" fill="url(#paint0_linear)"/>
    <path d="M60.9838 104.304L47.0792 128.383C44.9013 132.156 46.6726 134.98 51.0179 134.661L62.375 133.827C66.7177 133.507 68.5709 136.377 66.4933 140.205L53.8586 163.452C51.7809 167.28 52.8316 168.149 56.1949 165.379L101.871 127.816C105.235 125.049 104.427 122.966 100.079 123.19L82.6261 124.083C78.2754 124.307 76.4987 121.403 78.6741 117.631L86.3563 104.325C88.5343 100.553 86.7523 97.4641 82.3964 97.4614L72.8636 97.451C68.505 97.4457 63.1591 100.529 60.9838 104.304" fill="url(#paint1_linear)"/>
    <path d="M121.445 107.321C136.992 107.321 149.598 94.7177 149.598 79.1684C149.598 63.6191 136.992 51.016 121.445 51.016C121.348 51.016 121.255 51.0292 121.158 51.0319C118.652 28.5817 99.621 11.1238 76.503 11.1238C58.2478 11.1238 42.5427 22.0162 35.5099 37.65C35.2855 37.6473 35.0664 37.6341 34.842 37.6341C15.5994 37.6341 0 53.2336 0 72.4761C0 91.7214 15.5994 107.321 34.842 107.321" fill="white"/>
    <path d="M105.013 63.5726C104.876 63.57 104.738 63.562 104.598 63.562C92.5153 63.562 82.7185 73.3563 82.7185 85.4419C82.7185 97.525 92.5153 107.322 104.598 107.322H158.979C168.741 107.322 176.656 99.4072 176.656 89.6447C176.656 79.8822 168.741 71.9676 158.979 71.9676C158.918 71.9676 158.857 71.9729 158.799 71.9729C157.226 57.8783 145.275 46.9146 130.758 46.9146C119.295 46.9146 109.432 53.7547 105.013 63.5726" fill="url(#paint2_linear)"/>
    <defs>
        <linearGradient id="paint0_linear" x1="106.539" y1="58.4203" x2="154.937" y2="10.0228" gradientUnits="userSpaceOnUse">
            <stop stop-color="#FDB93A"/>
            <stop offset="1" stop-color="#FFCF37"/>
        </linearGradient>
        <linearGradient id="paint1_linear" x1="41.6814" y1="155.588" x2="92.3884" y2="104.881" gradientUnits="userSpaceOnUse">
            <stop stop-color="#FDB93A"/>
            <stop offset="1" stop-color="#FFCF37"/>
        </linearGradient>
        <linearGradient id="paint2_linear" x1="102.287" y1="114.072" x2="155.944" y2="60.4154" gradientUnits="userSpaceOnUse">
            <stop stop-color="#D1E8F8"/>
            <stop offset="1" stop-color="#E2EFFA"/>
        </linearGradient>
    </defs>
</svg>
