<svg width="25" height="22" viewBox="0 0 25 22" fill="none" xmlns="http://www.w3.org/2000/svg">
    <path d="M16.8774 13.3682C19.0379 13.3682 20.7897 11.6167 20.7897 9.45583C20.7897 7.2953 19.0379 5.54347 16.8774 5.54347C16.8638 5.54347 16.851 5.54567 16.8374 5.54567C16.4892 2.42576 13.8444 -2.01991e-05 10.6317 -2.01991e-05C8.09474 -2.01991e-05 5.9122 1.51334 4.93484 3.68635C4.90366 3.68561 4.87321 3.68414 4.84202 3.68414C2.16787 3.68414 0 5.85201 0 8.52617C0 11.2003 2.16787 13.3682 4.84202 13.3682" fill="white"/>
    <path d="M14.5937 7.28832C14.5747 7.28832 14.5556 7.28722 14.5361 7.28722C12.857 7.28722 11.4955 8.64868 11.4955 10.3279C11.4955 12.0067 12.857 13.3682 14.5361 13.3682H22.0934C23.4501 13.3682 24.55 12.2683 24.55 10.9116C24.55 9.55486 23.4501 8.45462 22.0934 8.45462C22.085 8.45462 22.0765 8.45607 22.0685 8.45607C21.8498 6.49696 20.189 4.97369 18.1715 4.97369C16.5785 4.97369 15.2079 5.92427 14.5937 7.28832Z" fill="url(#paint0_linear)"/>
    <path d="M3.96165 16.4308L2.90212 18.2649C2.69997 18.616 2.81994 19.0646 3.17104 19.2672C3.28697 19.3339 3.41317 19.3658 3.53717 19.3658C3.79069 19.3658 4.0376 19.2341 4.17334 18.9986L5.23288 17.1642C5.43503 16.8135 5.31506 16.3648 4.96396 16.1619C4.84802 16.0952 4.72182 16.0632 4.59745 16.0632C4.34357 16.0632 4.0974 16.1953 3.96165 16.4308" fill="url(#paint1_linear)"/>
    <path d="M9.87234 16.4308L8.81317 18.2649C8.61065 18.616 8.73099 19.0646 9.08209 19.2672C9.19802 19.3339 9.32385 19.3658 9.44823 19.3658C9.70174 19.3658 9.94828 19.2341 10.0844 18.9986L11.1436 17.1642C11.3461 16.8135 11.2257 16.3648 10.875 16.1619C10.7591 16.0952 10.6329 16.0632 10.5081 16.0632C10.2546 16.0632 10.0084 16.1953 9.87234 16.4308" fill="url(#paint2_linear)"/>
    <path d="M15.7835 16.4308L14.7244 18.2649C14.5218 18.616 14.6422 19.0646 14.9933 19.2672C15.1092 19.3339 15.235 19.3658 15.3594 19.3658C15.6129 19.3658 15.8595 19.2341 15.9956 18.9986L17.0548 17.1642C17.2573 16.8135 17.1369 16.3648 16.7862 16.1619C16.6703 16.0952 16.5437 16.0632 16.4193 16.0632C16.1658 16.0632 15.9196 16.1953 15.7835 16.4308" fill="url(#paint3_linear)"/>
    <path d="M5.79571 19.0646L4.7369 20.899C4.53439 21.2497 4.65437 21.6988 5.00547 21.9013C5.12103 21.9681 5.24723 22 5.3716 22C5.62548 22 5.87166 21.8683 6.00814 21.6328L7.06694 19.7984C7.26945 19.4473 7.14948 18.9986 6.79802 18.7961C6.68245 18.7293 6.55625 18.6974 6.43151 18.6974C6.178 18.6974 5.93182 18.8291 5.79571 19.0646Z" fill="url(#paint4_linear)"/>
    <path d="M11.8905 19.0646L10.8314 20.899C10.6288 21.2497 10.7492 21.6988 11.1003 21.9013C11.2158 21.9681 11.3417 22 11.4664 22C11.7199 22 11.9665 21.8683 12.1026 21.6328L13.1614 19.7984C13.3639 19.4473 13.2439 18.9986 12.8932 18.7961C12.7769 18.7293 12.6507 18.6974 12.526 18.6974C12.2725 18.6974 12.0266 18.8291 11.8905 19.0646Z" fill="url(#paint5_linear)"/>
    <path d="M17.9848 19.0646L16.9256 20.899C16.7235 21.2497 16.8434 21.6988 17.1945 21.9013C17.3101 21.9681 17.4363 22 17.5607 22C17.8142 22 18.0607 21.8683 18.1968 21.6328L19.256 19.7984C19.4582 19.4473 19.3386 18.9986 18.9875 18.7961C18.8715 18.7293 18.7449 18.6974 18.6206 18.6974C18.3671 18.6974 18.1209 18.8291 17.9848 19.0646" fill="url(#paint6_linear)"/>
    <defs>
        <linearGradient id="paint0_linear" x1="14.2149" y1="14.3066" x2="21.6717" y2="6.84981" gradientUnits="userSpaceOnUse">
            <stop stop-color="#D1E8F8"/>
            <stop offset="1" stop-color="#E2EFFA"/>
        </linearGradient>
        <linearGradient id="paint1_linear" x1="2.80412" y1="17.7145" x2="5.33104" y2="17.7145" gradientUnits="userSpaceOnUse">
            <stop stop-color="#00B0F0"/>
            <stop offset="1" stop-color="#00BFF3"/>
        </linearGradient>
        <linearGradient id="paint2_linear" x1="8.71511" y1="17.7145" x2="11.242" y2="17.7145" gradientUnits="userSpaceOnUse">
            <stop stop-color="#00B0F0"/>
            <stop offset="1" stop-color="#00BFF3"/>
        </linearGradient>
        <linearGradient id="paint3_linear" x1="14.6262" y1="17.7145" x2="17.1531" y2="17.7145" gradientUnits="userSpaceOnUse">
            <stop stop-color="#00B0F0"/>
            <stop offset="1" stop-color="#00BFF3"/>
        </linearGradient>
        <linearGradient id="paint4_linear" x1="4.63854" y1="20.3486" x2="7.16546" y2="20.3486" gradientUnits="userSpaceOnUse">
            <stop stop-color="#00B0F0"/>
            <stop offset="1" stop-color="#00BFF3"/>
        </linearGradient>
        <linearGradient id="paint5_linear" x1="10.7331" y1="20.3486" x2="13.26" y2="20.3486" gradientUnits="userSpaceOnUse">
            <stop stop-color="#00B0F0"/>
            <stop offset="1" stop-color="#00BFF3"/>
        </linearGradient>
        <linearGradient id="paint6_linear" x1="16.8275" y1="20.3486" x2="19.3544" y2="20.3486" gradientUnits="userSpaceOnUse">
            <stop stop-color="#00B0F0"/>
            <stop offset="1" stop-color="#00BFF3"/>
        </linearGradient>
    </defs>
</svg>
